<?xml version="1.0" encoding="utf-8"?>
<!-- Generator: Adobe Illustrator 16.0.0, SVG Export Plug-In . SVG Version: 6.00 Build 0)  -->
<!DOCTYPE svg PUBLIC "-//W3C//DTD SVG 1.1//EN" "http://www.w3.org/Graphics/SVG/1.1/DTD/svg11.dtd">
<svg version="1.1" id="Layer_1" xmlns="http://www.w3.org/2000/svg" xmlns:xlink="http://www.w3.org/1999/xlink" x="0px" y="0px"
	 width="147.987px" height="39.517px" viewBox="0 0 147.987 39.517" enable-background="new 0 0 147.987 39.517"
	 xml:space="preserve">
<path fill="#EB2626" d="M19.087,0.314c1.117-0.271,1.472-0.308,2.536,0c1.062,0.31,1.813,0.571,2.728,0.977
	c0.802,0.353,1.853,0.635,2.144,1.558C23.94,2.4,22.336,0.465,18.894,1.095c-0.724,0.133-1.374,0.709-1.95,0.975
	c-0.778,0.357-1.329,0.898-1.951,0.584C15.925,1.441,17.97,0.587,19.087,0.314"/>
<path fill="#EB2626" d="M19.087,0.314c1.117-0.271,1.472-0.308,2.536,0c1.062,0.31,1.813,0.571,2.728,0.977
	c0.802,0.353,1.853,0.635,2.144,1.558C23.94,2.4,22.336,0.465,18.894,1.095c-0.724,0.133-1.374,0.709-1.95,0.975
	c-0.778,0.357-1.329,0.898-1.951,0.584C15.925,1.441,17.97,0.587,19.087,0.314"/>
<path fill="none" stroke="#EB2626" stroke-width="0.195" stroke-miterlimit="10" d="M19.087,0.314c1.117-0.271,1.472-0.308,2.536,0
	c1.062,0.31,1.813,0.571,2.728,0.977c0.802,0.353,1.853,0.635,2.144,1.558C23.94,2.4,22.336,0.465,18.894,1.095
	c-0.724,0.133-1.374,0.709-1.95,0.975c-0.778,0.357-1.329,0.898-1.951,0.584C15.925,1.441,17.97,0.587,19.087,0.314z"/>
<path fill="#EB2626" d="M15.969,1.095c-0.426,0.928-1.965,0.723-3.12,1.17c-0.487,0.188-1.057,0.617-1.559,0.977
	c-0.916,0.649-1.666,2.053-1.905,2.294C9.144,5.773,8.571,6.111,7.976,5.968C9.561,3.267,11.861,1.276,15.969,1.095"/>
<path fill="#EB2626" d="M15.969,1.095c-0.426,0.928-1.965,0.723-3.12,1.17c-0.487,0.188-1.057,0.617-1.559,0.977
	c-0.916,0.649-1.666,2.053-1.905,2.294C9.144,5.773,8.571,6.111,7.976,5.968C9.561,3.267,11.861,1.276,15.969,1.095"/>
<path fill="none" stroke="#EB2626" stroke-width="0.195" stroke-miterlimit="10" d="M15.969,1.095
	c-0.426,0.928-1.965,0.723-3.12,1.17c-0.487,0.188-1.057,0.617-1.559,0.977c-0.916,0.649-1.666,2.053-1.905,2.294
	C9.144,5.773,8.571,6.111,7.976,5.968C9.561,3.267,11.861,1.276,15.969,1.095z"/>
<path fill="#EB2626" d="M17.917,2.069c0.723-0.407,1.432-0.221,2.146,0c0.15,0.047,0.551,0.089,0.78,0.195
	c0.089,0.042,0.855,0.558,1.171,0.78C22.374,3.3,22.68,3.768,22.986,4.02c0.788,0.643,2.487,1.673,1.95,1.948
	c-0.537,0.278-3.355-2.047-3.509-2.144c-0.293-0.182-0.89-0.749-1.364-0.976C19.424,2.544,18.516,2.55,17.917,2.069"/>
<path fill="#EB2626" d="M17.917,2.069c0.723-0.407,1.432-0.221,2.146,0c0.15,0.047,0.551,0.089,0.78,0.195
	c0.089,0.042,0.855,0.558,1.171,0.78C22.374,3.3,22.68,3.768,22.986,4.02c0.788,0.643,2.487,1.673,1.95,1.948
	c-0.537,0.278-3.355-2.047-3.509-2.144c-0.293-0.182-0.89-0.749-1.364-0.976C19.424,2.544,18.516,2.55,17.917,2.069"/>
<path fill="none" stroke="#EB2626" stroke-width="0.195" stroke-miterlimit="10" d="M17.917,2.069c0.723-0.407,1.432-0.221,2.146,0
	c0.15,0.047,0.551,0.089,0.78,0.195c0.089,0.042,0.855,0.558,1.171,0.78C22.374,3.3,22.68,3.768,22.986,4.02
	c0.788,0.643,2.487,1.673,1.95,1.948c-0.537,0.278-3.355-2.047-3.509-2.144c-0.293-0.182-0.89-0.749-1.364-0.976
	C19.424,2.544,18.516,2.55,17.917,2.069z"/>
<path fill="#EB2626" d="M18.502,4.02c-1.247,0.95-2.93-0.329-4.483-0.391c-1.023-0.041-1.905,0.298-2.924,0.391
	C12.724,1.998,16.505,3.589,18.502,4.02"/>
<path fill="#EB2626" d="M18.502,4.02c-1.247,0.95-2.93-0.329-4.483-0.391c-1.023-0.041-1.905,0.298-2.924,0.391
	C12.724,1.998,16.505,3.589,18.502,4.02"/>
<path fill="none" stroke="#EB2626" stroke-width="0.195" stroke-miterlimit="10" d="M18.502,4.02
	c-1.247,0.95-2.93-0.329-4.483-0.391c-1.023-0.041-1.905,0.298-2.924,0.391C12.724,1.998,16.505,3.589,18.502,4.02z"/>
<path fill="#EB2626" d="M34.1,7.917c-0.749-0.33-1.197-0.819-1.755-1.363c-0.893-0.872-1.28-1.646-2.729-2.145
	c-0.494-0.17-1.11-0.332-1.561-0.389c-1.383-0.18-3.393,0.408-4.873-0.392c-0.037-0.166,0.076-0.184,0.194-0.193
	c0.062-0.012,0.134,0.012,0.195,0C28.692,2.333,33.042,4.229,34.1,7.917"/>
<path fill="#EB2626" d="M34.1,7.917c-0.749-0.33-1.197-0.819-1.755-1.363c-0.893-0.872-1.28-1.646-2.729-2.145
	c-0.494-0.17-1.11-0.332-1.561-0.389c-1.383-0.18-3.393,0.408-4.873-0.392c-0.037-0.166,0.076-0.184,0.194-0.193
	c0.062-0.012,0.134,0.012,0.195,0C28.692,2.333,33.042,4.229,34.1,7.917"/>
<path fill="none" stroke="#EB2626" stroke-width="0.195" stroke-miterlimit="10" d="M34.1,7.917
	c-0.749-0.33-1.197-0.819-1.755-1.363c-0.893-0.872-1.28-1.646-2.729-2.145c-0.494-0.17-1.11-0.332-1.561-0.389
	c-1.383-0.18-3.393,0.408-4.873-0.392c-0.037-0.166,0.076-0.184,0.194-0.193c0.062-0.012,0.134,0.012,0.195,0
	C28.692,2.333,33.042,4.229,34.1,7.917z"/>
<path fill="#EB2626" d="M8.365,4.02C8.864,4.011,8.604,4.166,8.56,4.411C7.417,5.456,6.296,6.06,5.44,7.528
	c-0.4,0.686-0.668,1.567-0.973,2.534c-0.333,1.043-0.506,2.342-1.367,3.119c-0.32-1.126,0.368-2.382,0.781-3.508
	c0.306-0.84,0.494-1.705,0.974-2.534C4.901,7.059,7.281,4.964,8.365,4.02"/>
<path fill="#EB2626" d="M8.365,4.02C8.864,4.011,8.604,4.166,8.56,4.411C7.417,5.456,6.296,6.06,5.44,7.528
	c-0.4,0.686-0.668,1.567-0.973,2.534c-0.333,1.043-0.506,2.342-1.367,3.119c-0.32-1.126,0.368-2.382,0.781-3.508
	c0.306-0.84,0.494-1.705,0.974-2.534C4.901,7.059,7.281,4.964,8.365,4.02"/>
<path fill="none" stroke="#EB2626" stroke-width="0.195" stroke-miterlimit="10" d="M8.365,4.02C8.864,4.011,8.604,4.166,8.56,4.411
	C7.417,5.456,6.296,6.06,5.44,7.528c-0.4,0.686-0.668,1.567-0.973,2.534c-0.333,1.043-0.506,2.342-1.367,3.119
	c-0.32-1.126,0.368-2.382,0.781-3.508c0.306-0.84,0.494-1.705,0.974-2.534C4.901,7.059,7.281,4.964,8.365,4.02z"/>
<path fill="#EB2626" d="M21.427,4.604c-2.421-0.002-3.903,1.926-6.044,1.562c0.334-0.673,1.461-0.784,2.534-1.17
	c0.837-0.303,1.933-0.979,2.535-0.976C20.805,4.021,21.437,3.981,21.427,4.604"/>
<path fill="#EB2626" d="M21.427,4.604c-2.421-0.002-3.903,1.926-6.044,1.562c0.334-0.673,1.461-0.784,2.534-1.17
	c0.837-0.303,1.933-0.979,2.535-0.976C20.805,4.021,21.437,3.981,21.427,4.604"/>
<path fill="none" stroke="#EB2626" stroke-width="0.195" stroke-miterlimit="10" d="M21.427,4.604
	c-2.421-0.002-3.903,1.926-6.044,1.562c0.334-0.673,1.461-0.784,2.534-1.17c0.837-0.303,1.933-0.979,2.535-0.976
	C20.805,4.021,21.437,3.981,21.427,4.604z"/>
<path fill="#EB2626" d="M14.409,4.215C14.222,4.74,12.71,7.52,11.484,7.724c0.291-1.53,1.172-2.468,1.95-3.509H14.409z"/>
<path fill="#EB2626" d="M14.409,4.215C14.222,4.74,12.71,7.52,11.484,7.724c0.291-1.53,1.172-2.468,1.95-3.509H14.409z"/>
<path fill="none" stroke="#EB2626" stroke-width="0.195" stroke-miterlimit="10" d="M14.409,4.215
	C14.222,4.74,12.71,7.52,11.484,7.724c0.291-1.53,1.172-2.468,1.95-3.509H14.409z"/>
<path fill="#EB2626" d="M26.69,4.604c0.008-0.189,0.24-0.149,0.39-0.193c1.224,0.217,1.886,1.661,2.536,2.729
	c0.615,1.008,1.326,2.162,1.753,3.314c-1.775,0.031-1.951-1.635-2.534-2.73C28.208,6.539,27.416,5.519,26.69,4.604"/>
<path fill="#EB2626" d="M26.69,4.604c0.008-0.189,0.24-0.149,0.39-0.193c1.224,0.217,1.886,1.661,2.536,2.729
	c0.615,1.008,1.326,2.162,1.753,3.314c-1.775,0.031-1.951-1.635-2.534-2.73C28.208,6.539,27.416,5.519,26.69,4.604"/>
<path fill="none" stroke="#EB2626" stroke-width="0.195" stroke-miterlimit="10" d="M26.69,4.604c0.008-0.189,0.24-0.149,0.39-0.193
	c1.224,0.217,1.886,1.661,2.536,2.729c0.615,1.008,1.326,2.162,1.753,3.314c-1.775,0.031-1.951-1.635-2.534-2.73
	C28.208,6.539,27.416,5.519,26.69,4.604z"/>
<path fill="#EB2626" d="M24.548,7.917c0.143-0.438,1.091-0.076,1.559-0.193c0.771,0.853,1.094,2.153,1.755,3.119
	c1.825-0.101,5.51-0.771,5.262,1.949c-2.471-1.011-5.093,2.168-5.458,2.534c-0.366,0.365-1.562,0.551-2.143,0.975
	c-0.161,0.115-0.23,0.266-0.392,0.391c-0.219,0.169-0.317,0.306-0.583,0.584c-0.312,0.325-0.344,2.092-0.197,2.729
	c0.201,0.87,1.338,3.245,2.339,3.704c1.003,0.46,2.452,1.062,3.119,1.366c0.894,0.406,1.624,0.937,2.341,0.975
	c0.06,0.774-0.452,0.979-0.39,1.755c-0.533,0.18-0.83,0.597-1.365,0.779c-0.583,0.724-1.316,1.468-2.145,2.145
	c-0.744,0.605-2.203,2.047-3.702,1.56c0.575-0.731,1.884-0.966,2.727-1.755c0.675-0.633,1.675-1.604,0.78-2.729
	c-0.729,0.671-0.398,2.361-1.56,2.729c-0.511-0.139-0.185-1.113-0.779-1.17c-1.176,0.369-2.187,1.17-3.313,1.755
	c-1.1,0.57-2.245,1.318-3.509,1.17c-0.072-1.017,1.205-1.031,1.754-1.365c0.799-0.486,1.709-1.204,2.534-1.95
	c0.12-0.108,0.265-0.292,0.389-0.389c0.296-0.231,0.48-0.713,0.78-1.365c-0.4-1.654-3.026-1.51-3.508,0
	c-0.283,0.884,0.042,1.886,0.78,2.534c-0.568,0.772-1.443,0.475-2.536,0.392c-0.736,0.467-0.675,1.3-0.585,1.948
	c0.156,1.114,1.554,1.499,1.171,2.146c-0.88,0.411-1.378-0.085-1.951-0.586c-0.821-0.716-1.493-1.903-1.362-3.704
	c0.083-1.173,0.376-2.271-0.783-2.729c-0.977,0.312-1.745,0.744-1.948,1.754c-0.264,1.306,0.758,2.281,0.585,3.12
	c-2.49,0.281-1.892-2.525-3.315-3.314c-1.211,0.404-2.812,0.231-3.9-0.194c-0.682-0.268-1.365-0.466-1.169-1.754
	c1.314,0.835,3.783,0.222,4.68-0.976c0.214-0.286,0.178-0.802,0.585-1.17c0.664-0.599,1.889-0.836,2.534-1.366
	c1.758-1.437,2.127-3.407,1.169-4.872c-0.724-1.104-2.091-2.23-3.508-2.924c-1.524-0.743-3.137-1.162-4.485-1.951
	c-0.103-0.817,0.277-1.363,0.39-1.755c0.114-0.39,1.866-1.045,2.146-1.363c0.499-0.576,0.842-1.208,1.558-1.755
	c0.169-0.129,0.253-0.063,0.391-0.196c0.537-0.515,2.001-1.573,3.118-1.169c-0.059,0.581-0.779,0.646-1.364,0.977
	c-0.817,0.461-2.016,1.013-2.339,2.144c-0.087,0.297-0.663,1.264,0.39,1.363c0.165-1.197,0.625-2.102,1.362-2.728
	c0.402,0.25,0.208,1.093,0.782,1.169c1.349-0.125,2.189-1.157,3.314-1.756c1.009-0.532,2.23-1.213,3.51-0.974
	c0.06,0.911-1.039,0.876-1.561,1.17c-1.513,0.851-3.207,1.979-3.898,3.899c0.747,1.834,3.481,1.009,3.705-0.586
	c0.129-0.935-0.774-1.268-0.781-2.338c0.885-0.484,1.157-0.223,2.145,0c1.309-0.642,0.967-2.341,0.195-3.315
	c-0.195-0.244-0.921-0.412-0.586-0.78c0.121-0.268,0.07-0.303,0.781-0.303c0.712,0,1.905,1.646,2.534,2.837
	c0.271,2-0.833,3.939,0.778,4.29c0.713,0.154,2.01-0.882,2.148-1.949C25.642,9.505,25.016,8.63,24.548,7.917"/>
<path fill="#EB2626" d="M24.548,7.917c0.143-0.438,1.091-0.076,1.559-0.193c0.771,0.853,1.094,2.153,1.755,3.119
	c1.825-0.101,5.51-0.771,5.262,1.949c-2.471-1.011-5.093,2.168-5.458,2.534c-0.366,0.365-1.562,0.551-2.143,0.975
	c-0.161,0.115-0.23,0.266-0.392,0.391c-0.219,0.169-0.317,0.306-0.583,0.584c-0.312,0.325-0.344,2.092-0.197,2.729
	c0.201,0.87,1.338,3.245,2.339,3.704c1.003,0.46,2.452,1.062,3.119,1.366c0.894,0.406,1.624,0.937,2.341,0.975
	c0.06,0.774-0.452,0.979-0.39,1.755c-0.533,0.18-0.83,0.597-1.365,0.779c-0.583,0.724-1.316,1.468-2.145,2.145
	c-0.744,0.605-2.203,2.047-3.702,1.56c0.575-0.731,1.884-0.966,2.727-1.755c0.675-0.633,1.675-1.604,0.78-2.729
	c-0.729,0.671-0.398,2.361-1.56,2.729c-0.511-0.139-0.185-1.113-0.779-1.17c-1.176,0.369-2.187,1.17-3.313,1.755
	c-1.1,0.57-2.245,1.318-3.509,1.17c-0.072-1.017,1.205-1.031,1.754-1.365c0.799-0.486,1.709-1.204,2.534-1.95
	c0.12-0.108,0.265-0.292,0.389-0.389c0.296-0.231,0.48-0.713,0.78-1.365c-0.4-1.654-3.026-1.51-3.508,0
	c-0.283,0.884,0.042,1.886,0.78,2.534c-0.568,0.772-1.443,0.475-2.536,0.392c-0.736,0.467-0.675,1.3-0.585,1.948
	c0.156,1.114,1.554,1.499,1.171,2.146c-0.88,0.411-1.378-0.085-1.951-0.586c-0.821-0.716-1.493-1.903-1.362-3.704
	c0.083-1.173,0.376-2.271-0.783-2.729c-0.977,0.312-1.745,0.744-1.948,1.754c-0.264,1.306,0.758,2.281,0.585,3.12
	c-2.49,0.281-1.892-2.525-3.315-3.314c-1.211,0.404-2.812,0.231-3.9-0.194c-0.682-0.268-1.365-0.466-1.169-1.754
	c1.314,0.835,3.783,0.222,4.68-0.976c0.214-0.286,0.178-0.802,0.585-1.17c0.664-0.599,1.889-0.836,2.534-1.366
	c1.758-1.437,2.127-3.407,1.169-4.872c-0.724-1.104-2.091-2.23-3.508-2.924c-1.524-0.743-3.137-1.162-4.485-1.951
	c-0.103-0.817,0.277-1.363,0.39-1.755c0.114-0.39,1.866-1.045,2.146-1.363c0.499-0.576,0.842-1.208,1.558-1.755
	c0.169-0.129,0.253-0.063,0.391-0.196c0.537-0.515,2.001-1.573,3.118-1.169c-0.059,0.581-0.779,0.646-1.364,0.977
	c-0.817,0.461-2.016,1.013-2.339,2.144c-0.087,0.297-0.663,1.264,0.39,1.363c0.165-1.197,0.625-2.102,1.362-2.728
	c0.402,0.25,0.208,1.093,0.782,1.169c1.349-0.125,2.189-1.157,3.314-1.756c1.009-0.532,2.23-1.213,3.51-0.974
	c0.06,0.911-1.039,0.876-1.561,1.17c-1.513,0.851-3.207,1.979-3.898,3.899c0.747,1.834,3.481,1.009,3.705-0.586
	c0.129-0.935-0.774-1.268-0.781-2.338c0.885-0.484,1.157-0.223,2.145,0c1.309-0.642,0.967-2.341,0.195-3.315
	c-0.195-0.244-0.921-0.412-0.586-0.78c0.121-0.268,0.07-0.303,0.781-0.303c0.712,0,1.905,1.646,2.534,2.837
	c0.271,2-0.833,3.939,0.778,4.29c0.713,0.154,2.01-0.882,2.148-1.949C25.642,9.505,25.016,8.63,24.548,7.917"/>
<path fill="none" stroke="#EB2626" stroke-width="0.195" stroke-miterlimit="10" d="M24.548,7.917
	c0.143-0.438,1.091-0.076,1.559-0.193c0.771,0.853,1.094,2.153,1.755,3.119c1.825-0.101,5.51-0.771,5.262,1.949
	c-2.471-1.011-5.093,2.168-5.458,2.534c-0.366,0.365-1.562,0.551-2.143,0.975c-0.161,0.115-0.23,0.266-0.392,0.391
	c-0.219,0.169-0.317,0.306-0.583,0.584c-0.312,0.325-0.344,2.092-0.197,2.729c0.201,0.87,1.338,3.245,2.339,3.704
	c1.003,0.46,2.452,1.062,3.119,1.366c0.894,0.406,1.624,0.937,2.341,0.975c0.06,0.774-0.452,0.979-0.39,1.755
	c-0.533,0.18-0.83,0.597-1.365,0.779c-0.583,0.724-1.316,1.468-2.145,2.145c-0.744,0.605-2.203,2.047-3.702,1.56
	c0.575-0.731,1.884-0.966,2.727-1.755c0.675-0.633,1.675-1.604,0.78-2.729c-0.729,0.671-0.398,2.361-1.56,2.729
	c-0.511-0.139-0.185-1.113-0.779-1.17c-1.176,0.369-2.187,1.17-3.313,1.755c-1.1,0.57-2.245,1.318-3.509,1.17
	c-0.072-1.017,1.205-1.031,1.754-1.365c0.799-0.486,1.709-1.204,2.534-1.95c0.12-0.108,0.265-0.292,0.389-0.389
	c0.296-0.231,0.48-0.713,0.78-1.365c-0.4-1.654-3.026-1.51-3.508,0c-0.283,0.884,0.042,1.886,0.78,2.534
	c-0.568,0.772-1.443,0.475-2.536,0.392c-0.736,0.467-0.675,1.3-0.585,1.948c0.156,1.114,1.554,1.499,1.171,2.146
	c-0.88,0.411-1.378-0.085-1.951-0.586c-0.821-0.716-1.493-1.903-1.362-3.704c0.083-1.173,0.376-2.271-0.783-2.729
	c-0.977,0.312-1.745,0.744-1.948,1.754c-0.264,1.306,0.758,2.281,0.585,3.12c-2.49,0.281-1.892-2.525-3.315-3.314
	c-1.211,0.404-2.812,0.231-3.9-0.194c-0.682-0.268-1.365-0.466-1.169-1.754c1.314,0.835,3.783,0.222,4.68-0.976
	c0.214-0.286,0.178-0.802,0.585-1.17c0.664-0.599,1.889-0.836,2.534-1.366c1.758-1.437,2.127-3.407,1.169-4.872
	c-0.724-1.104-2.091-2.23-3.508-2.924c-1.524-0.743-3.137-1.162-4.485-1.951c-0.103-0.817,0.277-1.363,0.39-1.755
	c0.114-0.39,1.866-1.045,2.146-1.363c0.499-0.576,0.842-1.208,1.558-1.755c0.169-0.129,0.253-0.063,0.391-0.196
	c0.537-0.515,2.001-1.573,3.118-1.169c-0.059,0.581-0.779,0.646-1.364,0.977c-0.817,0.461-2.016,1.013-2.339,2.144
	c-0.087,0.297-0.663,1.264,0.39,1.363c0.165-1.197,0.625-2.102,1.362-2.728c0.402,0.25,0.208,1.093,0.782,1.169
	c1.349-0.125,2.189-1.157,3.314-1.756c1.009-0.532,2.23-1.213,3.51-0.974c0.06,0.911-1.039,0.876-1.561,1.17
	c-1.513,0.851-3.207,1.979-3.898,3.899c0.747,1.834,3.481,1.009,3.705-0.586c0.129-0.935-0.774-1.268-0.781-2.338
	c0.885-0.484,1.157-0.223,2.145,0c1.309-0.642,0.967-2.341,0.195-3.315c-0.195-0.244-0.921-0.412-0.586-0.78
	c0.121-0.268,0.07-0.303,0.781-0.303c0.712,0,1.905,1.646,2.534,2.837c0.271,2-0.833,3.939,0.778,4.29
	c0.713,0.154,2.01-0.882,2.148-1.949C25.642,9.505,25.016,8.63,24.548,7.917z"/>
<path fill="#EB2626" d="M5.636,8.502C5.938,7.653,6.044,7.571,6.805,7.14c1.506-0.856,2.913-1.262,4.873-1.365
	c-0.169,0.973-1.141,0.593-1.755,0.779C8.247,7.064,6.657,7.68,5.636,8.502"/>
<path fill="#EB2626" d="M5.636,8.502C5.938,7.653,6.044,7.571,6.805,7.14c1.506-0.856,2.913-1.262,4.873-1.365
	c-0.169,0.973-1.141,0.593-1.755,0.779C8.247,7.064,6.657,7.68,5.636,8.502"/>
<path fill="none" stroke="#EB2626" stroke-width="0.195" stroke-miterlimit="10" d="M5.636,8.502
	C5.938,7.653,6.044,7.571,6.805,7.14c1.506-0.856,2.913-1.262,4.873-1.365c-0.169,0.973-1.141,0.593-1.755,0.779
	C8.247,7.064,6.657,7.68,5.636,8.502z"/>
<path fill="#EB2626" d="M17.139,7.724c-1.37,1.476-2.096-1.129-3.704-1.17C14.366,5.349,16.166,7.34,17.139,7.724"/>
<path fill="#EB2626" d="M17.139,7.724c-1.37,1.476-2.096-1.129-3.704-1.17C14.366,5.349,16.166,7.34,17.139,7.724"/>
<path fill="none" stroke="#EB2626" stroke-width="0.195" stroke-miterlimit="10" d="M17.139,7.724
	c-1.37,1.476-2.096-1.129-3.704-1.17C14.366,5.349,16.166,7.34,17.139,7.724z"/>
<path fill="#EB2626" d="M27.862,7.333c-0.632,0.19-1.31-0.177-1.949-0.193c-1.359-0.037-2.754,0.615-3.51,0
	c0.048-0.778,1.193-0.702,1.948-0.781c0.865-0.088,2.569-0.047,2.729,0C27.243,6.407,27.943,6.667,27.862,7.333"/>
<path fill="#EB2626" d="M27.862,7.333c-0.632,0.19-1.31-0.177-1.949-0.193c-1.359-0.037-2.754,0.615-3.51,0
	c0.048-0.778,1.193-0.702,1.948-0.781c0.865-0.088,2.569-0.047,2.729,0C27.243,6.407,27.943,6.667,27.862,7.333"/>
<path fill="none" stroke="#EB2626" stroke-width="0.195" stroke-miterlimit="10" d="M27.862,7.333
	c-0.632,0.19-1.31-0.177-1.949-0.193c-1.359-0.037-2.754,0.615-3.51,0c0.048-0.778,1.193-0.702,1.948-0.781
	c0.865-0.088,2.569-0.047,2.729,0C27.243,6.407,27.943,6.667,27.862,7.333z"/>
<path fill="#EB2626" d="M38.779,16.107v1.167c-0.567-1.865-1.483-3.729-2.144-4.872c-0.548-0.946-2.046-2.526-2.925-2.924
	c-0.064-0.029-0.718-0.417-1.221-0.792c-0.503-0.372-2.076-0.589-2.483-1.937C34.802,7.994,37.853,10.987,38.779,16.107"/>
<path fill="#EB2626" d="M38.779,16.107v1.167c-0.567-1.865-1.483-3.729-2.144-4.872c-0.548-0.946-2.046-2.526-2.925-2.924
	c-0.064-0.029-0.718-0.417-1.221-0.792c-0.503-0.372-2.076-0.589-2.483-1.937C34.802,7.994,37.853,10.987,38.779,16.107"/>
<path fill="none" stroke="#EB2626" stroke-width="0.195" stroke-miterlimit="10" d="M38.779,16.107v1.167
	c-0.567-1.865-1.483-3.729-2.144-4.872c-0.548-0.946-2.046-2.526-2.925-2.924c-0.064-0.029-0.718-0.417-1.221-0.792
	c-0.503-0.372-2.076-0.589-2.483-1.937C34.802,7.994,37.853,10.987,38.779,16.107z"/>
<path fill="#EB2626" d="M7.976,7.528c0.332-0.071,0.368,0.152,0.389,0.39c-1.616,2.804-2.419,6.421-3.118,10.139
	c-0.925-2.716,0.287-5.961,1.363-8.578C6.993,8.552,7.159,7.987,7.976,7.528"/>
<path fill="#EB2626" d="M7.976,7.528c0.332-0.071,0.368,0.152,0.389,0.39c-1.616,2.804-2.419,6.421-3.118,10.139
	c-0.925-2.716,0.287-5.961,1.363-8.578C6.993,8.552,7.159,7.987,7.976,7.528"/>
<path fill="none" stroke="#EB2626" stroke-width="0.195" stroke-miterlimit="10" d="M7.976,7.528
	c0.332-0.071,0.368,0.152,0.389,0.39c-1.616,2.804-2.419,6.421-3.118,10.139c-0.925-2.716,0.287-5.961,1.363-8.578
	C6.993,8.552,7.159,7.987,7.976,7.528z"/>
<path fill="#EB2626" d="M3.296,9.674c-0.631,1.729-1.87,3.621-2.146,5.849c-0.459,3.737,0.452,7.031,1.562,8.968
	c0.422,0.74,1.357,1.201,1.169,2.145c0.01,0.364-0.151,0.411-0.392,0.195c-2.38-2.348-3.748-6.466-3.311-10.722
	C0.429,13.646,2.001,10.721,3.296,9.674"/>
<path fill="#EB2626" d="M3.296,9.674c-0.631,1.729-1.87,3.621-2.146,5.849c-0.459,3.737,0.452,7.031,1.562,8.968
	c0.422,0.74,1.357,1.201,1.169,2.145c0.01,0.364-0.151,0.411-0.392,0.195c-2.38-2.348-3.748-6.466-3.311-10.722
	C0.429,13.646,2.001,10.721,3.296,9.674"/>
<path fill="none" stroke="#EB2626" stroke-width="0.195" stroke-miterlimit="10" d="M3.296,9.674
	c-0.631,1.729-1.87,3.621-2.146,5.849c-0.459,3.737,0.452,7.031,1.562,8.968c0.422,0.74,1.357,1.201,1.169,2.145
	c0.01,0.364-0.151,0.411-0.392,0.195c-2.38-2.348-3.748-6.466-3.311-10.722C0.429,13.646,2.001,10.721,3.296,9.674z"/>
<path fill="#EB2626" d="M33.125,9.674c2.101,0.692,1.374,4.214,1.56,6.823C33.375,15.012,33.809,11.783,33.125,9.674"/>
<path fill="#EB2626" d="M33.125,9.674c2.101,0.692,1.374,4.214,1.56,6.823C33.375,15.012,33.809,11.783,33.125,9.674"/>
<path fill="none" stroke="#EB2626" stroke-width="0.195" stroke-miterlimit="10" d="M33.125,9.674
	c2.101,0.692,1.374,4.214,1.56,6.823C33.375,15.012,33.809,11.783,33.125,9.674z"/>
<path fill="#EB2626" d="M4.662,12.402c0.331-0.072,0.367,0.151,0.39,0.393c-0.325,0.194-0.211,0.824-0.39,1.168
	c-1.463,0.55-2.49,1.538-2.926,3.117C1.188,14.777,3.411,13.557,4.662,12.402"/>
<path fill="#EB2626" d="M4.662,12.402c0.331-0.072,0.367,0.151,0.39,0.393c-0.325,0.194-0.211,0.824-0.39,1.168
	c-1.463,0.55-2.49,1.538-2.926,3.117C1.188,14.777,3.411,13.557,4.662,12.402"/>
<path fill="none" stroke="#EB2626" stroke-width="0.195" stroke-miterlimit="10" d="M4.662,12.402
	c0.331-0.072,0.367,0.151,0.39,0.393c-0.325,0.194-0.211,0.824-0.39,1.168c-1.463,0.55-2.49,1.538-2.926,3.117
	C1.188,14.777,3.411,13.557,4.662,12.402z"/>
<path fill="#EB2626" d="M35.659,29.948v-0.585c1.028-1.702,1.977-3.751,2.145-6.045c0.282-3.848-1.021-6.809-2.145-8.968
	c-0.268-0.514-0.864-0.828-0.584-1.559c-0.013-0.364,0.149-0.411,0.389-0.194c2.174,2.147,3.622,6.917,3.12,11.308
	c-0.046,0.398-0.085,0.975-0.196,1.365c-0.097,0.35-0.777,1.931-0.975,2.339C37.021,28.423,36.068,30.08,35.659,29.948"/>
<path fill="#EB2626" d="M35.659,29.948v-0.585c1.028-1.702,1.977-3.751,2.145-6.045c0.282-3.848-1.021-6.809-2.145-8.968
	c-0.268-0.514-0.864-0.828-0.584-1.559c-0.013-0.364,0.149-0.411,0.389-0.194c2.174,2.147,3.622,6.917,3.12,11.308
	c-0.046,0.398-0.085,0.975-0.196,1.365c-0.097,0.35-0.777,1.931-0.975,2.339C37.021,28.423,36.068,30.08,35.659,29.948"/>
<path fill="none" stroke="#EB2626" stroke-width="0.195" stroke-miterlimit="10" d="M35.659,29.948v-0.585
	c1.028-1.702,1.977-3.751,2.145-6.045c0.282-3.848-1.021-6.809-2.145-8.968c-0.268-0.514-0.864-0.828-0.584-1.559
	c-0.013-0.364,0.149-0.411,0.389-0.194c2.174,2.147,3.622,6.917,3.12,11.308c-0.046,0.398-0.085,0.975-0.196,1.365
	c-0.097,0.35-0.777,1.931-0.975,2.339C37.021,28.423,36.068,30.08,35.659,29.948z"/>
<path fill="#EB2626" d="M31.371,12.987h0.779c0.903,0.299,0.95,1.652,1.366,2.729c0.343,0.894,0.87,1.792,1.169,2.729
	c0.322,1.011,0.565,2.222,0.779,3.313c0.196,0.996,0.775,2.204-0.195,2.924c-0.518-1.072-0.339-2.258-0.584-3.312
	c-0.257-1.107-0.832-2.352-1.366-3.509c-0.065-0.146-0.173-0.335-0.196-0.392c-0.264-0.699-0.315-1.521-0.582-2.145
	c-0.277-0.646-0.782-1.091-0.976-1.755C31.461,13.414,31.361,13.256,31.371,12.987"/>
<path fill="#EB2626" d="M31.371,12.987h0.779c0.903,0.299,0.95,1.652,1.366,2.729c0.343,0.894,0.87,1.792,1.169,2.729
	c0.322,1.011,0.565,2.222,0.779,3.313c0.196,0.996,0.775,2.204-0.195,2.924c-0.518-1.072-0.339-2.258-0.584-3.312
	c-0.257-1.107-0.832-2.352-1.366-3.509c-0.065-0.146-0.173-0.335-0.196-0.392c-0.264-0.699-0.315-1.521-0.582-2.145
	c-0.277-0.646-0.782-1.091-0.976-1.755C31.461,13.414,31.361,13.256,31.371,12.987"/>
<path fill="none" stroke="#EB2626" stroke-width="0.195" stroke-miterlimit="10" d="M31.371,12.987h0.779
	c0.903,0.299,0.95,1.652,1.366,2.729c0.343,0.894,0.87,1.792,1.169,2.729c0.322,1.011,0.565,2.222,0.779,3.313
	c0.196,0.996,0.775,2.204-0.195,2.924c-0.518-1.072-0.339-2.258-0.584-3.312c-0.257-1.107-0.832-2.352-1.366-3.509
	c-0.065-0.146-0.173-0.335-0.196-0.392c-0.264-0.699-0.315-1.521-0.582-2.145c-0.277-0.646-0.782-1.091-0.976-1.755
	C31.461,13.414,31.361,13.256,31.371,12.987z"/>
<path fill="#EB2626" d="M3.686,14.936c0.174,0.087,0.35,0.172,0.39,0.394c0.777,4.29,1.965,8.169,3.705,11.502
	c-1.311,0.396-1.5-0.917-1.95-1.951c-0.784-1.808-1.352-3.495-1.95-5.849C3.482,17.456,2.829,16,3.686,14.936"/>
<path fill="#EB2626" d="M3.686,14.936c0.174,0.087,0.35,0.172,0.39,0.394c0.777,4.29,1.965,8.169,3.705,11.502
	c-1.311,0.396-1.5-0.917-1.95-1.951c-0.784-1.808-1.352-3.495-1.95-5.849C3.482,17.456,2.829,16,3.686,14.936"/>
<path fill="none" stroke="#EB2626" stroke-width="0.195" stroke-miterlimit="10" d="M3.686,14.936
	c0.174,0.087,0.35,0.172,0.39,0.394c0.777,4.29,1.965,8.169,3.705,11.502c-1.311,0.396-1.5-0.917-1.95-1.951
	c-0.784-1.808-1.352-3.495-1.95-5.849C3.482,17.456,2.829,16,3.686,14.936z"/>
<path fill="#EB2626" d="M33.709,20.2c1.336,2.521,0.002,5.32-0.78,7.993c-0.483,1.651-0.824,3.962-2.534,3.9
	C32.185,28.814,33.25,24.81,33.709,20.2"/>
<path fill="#EB2626" d="M33.709,20.2c1.336,2.521,0.002,5.32-0.78,7.993c-0.483,1.651-0.824,3.962-2.534,3.9
	C32.185,28.814,33.25,24.81,33.709,20.2"/>
<path fill="none" stroke="#EB2626" stroke-width="0.195" stroke-miterlimit="10" d="M33.709,20.2c1.336,2.521,0.002,5.32-0.78,7.993
	c-0.483,1.651-0.824,3.962-2.534,3.9C32.185,28.814,33.25,24.81,33.709,20.2z"/>
<path fill="#EB2626" d="M37.218,22.539c0.904,1.954-2.632,4.875-3.118,4.875c-0.488,0-0.315-1.407,0-1.56
	C35.255,25.296,36.517,23.922,37.218,22.539"/>
<path fill="#EB2626" d="M37.218,22.539c0.904,1.954-2.632,4.875-3.118,4.875c-0.488,0-0.315-1.407,0-1.56
	C35.255,25.296,36.517,23.922,37.218,22.539"/>
<path fill="none" stroke="#EB2626" stroke-width="0.195" stroke-miterlimit="10" d="M37.218,22.539
	c0.904,1.954-2.632,4.875-3.118,4.875c-0.488,0-0.315-1.407,0-1.56C35.255,25.296,36.517,23.922,37.218,22.539z"/>
<path fill="#EB2626" d="M0.373,22.93c0.87,1.868,1.509,3.674,2.729,5.264c0.412,0.538,0.92,1.008,1.56,1.558
	c0.447,0.388,0.771,0.634,1.364,0.977c0.317,0.183,0.873,0.494,1.365,0.779c0.506,0.295,1.575,0.293,1.559,1.366
	C4.063,31.585,0.875,28.599,0.373,22.93"/>
<path fill="#EB2626" d="M0.373,22.93c0.87,1.868,1.509,3.674,2.729,5.264c0.412,0.538,0.92,1.008,1.56,1.558
	c0.447,0.388,0.771,0.634,1.364,0.977c0.317,0.183,0.873,0.494,1.365,0.779c0.506,0.295,1.575,0.293,1.559,1.366
	C4.063,31.585,0.875,28.599,0.373,22.93"/>
<path fill="none" stroke="#EB2626" stroke-width="0.195" stroke-miterlimit="10" d="M0.373,22.93
	c0.87,1.868,1.509,3.674,2.729,5.264c0.412,0.538,0.92,1.008,1.56,1.558c0.447,0.388,0.771,0.634,1.364,0.977
	c0.317,0.183,0.873,0.494,1.365,0.779c0.506,0.295,1.575,0.293,1.559,1.366C4.063,31.585,0.875,28.599,0.373,22.93z"/>
<path fill="#EB2626" d="M4.467,22.93c1.045,1.552,0.966,4.232,1.169,6.628c-0.136,0.892-0.859-0.591-1.169-0.779V22.93z"/>
<path fill="#EB2626" d="M4.467,22.93c1.045,1.552,0.966,4.232,1.169,6.628c-0.136,0.892-0.859-0.591-1.169-0.779V22.93z"/>
<path fill="none" stroke="#EB2626" stroke-width="0.195" stroke-miterlimit="10" d="M4.467,22.93
	c1.045,1.552,0.966,4.232,1.169,6.628c-0.136,0.892-0.859-0.591-1.169-0.779V22.93z"/>
<path fill="#EB2626" d="M35.854,27.024c-0.444,3.239-2.261,7.228-5.654,8.578c2.137-2.226,3.709-4.569,3.9-5.069
	c0.268-0.708,0.77-2.031,0.975-3.314C35.355,27.11,35.942,26.385,35.854,27.024"/>
<path fill="#EB2626" d="M35.854,27.024c-0.444,3.239-2.261,7.228-5.654,8.578c2.137-2.226,3.709-4.569,3.9-5.069
	c0.268-0.708,0.77-2.031,0.975-3.314C35.355,27.11,35.942,26.385,35.854,27.024"/>
<path fill="none" stroke="#EB2626" stroke-width="0.195" stroke-miterlimit="10" d="M35.854,27.024
	c-0.444,3.239-2.261,7.228-5.654,8.578c2.137-2.226,3.709-4.569,3.9-5.069c0.268-0.708,0.77-2.031,0.975-3.314
	C35.355,27.11,35.942,26.385,35.854,27.024z"/>
<path fill="#EB2626" d="M7.585,29.558c0.359-0.595,0.927,0.226,1.559,0c0.378,0.771,0.673,1.529,1.17,2.34
	c0.334,0.543,0.705,1.399,1.169,2.144c0.287,0.459,0.751,0.643,0.657,0.999c-0.356,0.354-0.703,0.386-1.045,0.171
	c-0.133-0.082-0.268-0.65-0.39-0.779C9.58,33.251,8.744,30.962,7.585,29.558"/>
<path fill="#EB2626" d="M7.585,29.558c0.359-0.595,0.927,0.226,1.559,0c0.378,0.771,0.673,1.529,1.17,2.34
	c0.334,0.543,0.705,1.399,1.169,2.144c0.287,0.459,0.751,0.643,0.657,0.999c-0.356,0.354-0.703,0.386-1.045,0.171
	c-0.133-0.082-0.268-0.65-0.39-0.779C9.58,33.251,8.744,30.962,7.585,29.558"/>
<path fill="none" stroke="#EB2626" stroke-width="0.195" stroke-miterlimit="10" d="M7.585,29.558c0.359-0.595,0.927,0.226,1.559,0
	c0.378,0.771,0.673,1.529,1.17,2.34c0.334,0.543,0.705,1.399,1.169,2.144c0.287,0.459,0.751,0.643,0.657,0.999
	c-0.356,0.354-0.703,0.386-1.045,0.171c-0.133-0.082-0.268-0.65-0.39-0.779C9.58,33.251,8.744,30.962,7.585,29.558z"/>
<path fill="#EB2626" d="M33.319,31.118c-0.333,1.089-1.385,1.522-2.338,1.949c-0.997,0.446-2.235,0.905-3.706,0.78
	c0.125-0.854,1.28-0.648,1.757-0.78C30.745,32.593,32.438,31.957,33.319,31.118"/>
<path fill="#EB2626" d="M33.319,31.118c-0.333,1.089-1.385,1.522-2.338,1.949c-0.997,0.446-2.235,0.905-3.706,0.78
	c0.125-0.854,1.28-0.648,1.757-0.78C30.745,32.593,32.438,31.957,33.319,31.118"/>
<path fill="none" stroke="#EB2626" stroke-width="0.195" stroke-miterlimit="10" d="M33.319,31.118
	c-0.333,1.089-1.385,1.522-2.338,1.949c-0.997,0.446-2.235,0.905-3.706,0.78c0.125-0.854,1.28-0.648,1.757-0.78
	C30.745,32.593,32.438,31.957,33.319,31.118z"/>
<path fill="#EB2626" d="M25.523,33.457c-1.336,0.571-2.221-0.865-3.315-1.169c-0.105-0.157-0.204-0.315-0.194-0.586
	c0.23-0.223,0.983-0.343,1.168-0.195c0.185,0.146,0.278,0.709,0.975,1.171C24.853,33.14,25.422,32.842,25.523,33.457"/>
<path fill="#EB2626" d="M25.523,33.457c-1.336,0.571-2.221-0.865-3.315-1.169c-0.105-0.157-0.204-0.315-0.194-0.586
	c0.23-0.223,0.983-0.343,1.168-0.195c0.185,0.146,0.278,0.709,0.975,1.171C24.853,33.14,25.422,32.842,25.523,33.457"/>
<path fill="none" stroke="#EB2626" stroke-width="0.195" stroke-miterlimit="10" d="M25.523,33.457
	c-1.336,0.571-2.221-0.865-3.315-1.169c-0.105-0.157-0.204-0.315-0.194-0.586c0.23-0.223,0.983-0.343,1.168-0.195
	c0.185,0.146,0.278,0.709,0.975,1.171C24.853,33.14,25.422,32.842,25.523,33.457z"/>
<path fill="#EB2626" d="M5.051,31.897c1.774,0.837,2.421,2.611,4.483,3.509c0.508,0.222,2.138,0.366,3.119,0.392
	c0.565,0.015,1.141-0.23,1.755-0.195c0.492,0.026,0.851,0.153,1.365,0.389c-0.137,0.631-0.986,0.333-1.365,0.391
	c-0.489,0.075-0.911,0.19-1.364,0.195C9.293,36.622,5.834,35.032,5.051,31.897"/>
<path fill="#EB2626" d="M5.051,31.897c1.774,0.837,2.421,2.611,4.483,3.509c0.508,0.222,2.138,0.366,3.119,0.392
	c0.565,0.015,1.141-0.23,1.755-0.195c0.492,0.026,0.851,0.153,1.365,0.389c-0.137,0.631-0.986,0.333-1.365,0.391
	c-0.489,0.075-0.911,0.19-1.364,0.195C9.293,36.622,5.834,35.032,5.051,31.897"/>
<path fill="none" stroke="#EB2626" stroke-width="0.195" stroke-miterlimit="10" d="M5.051,31.897
	c1.774,0.837,2.421,2.611,4.483,3.509c0.508,0.222,2.138,0.366,3.119,0.392c0.565,0.015,1.141-0.23,1.755-0.195
	c0.492,0.026,0.851,0.153,1.365,0.389c-0.137,0.631-0.986,0.333-1.365,0.391c-0.489,0.075-0.911,0.19-1.364,0.195
	C9.293,36.622,5.834,35.032,5.051,31.897z"/>
<path fill="#EB2626" d="M27.275,31.897c0.812,0.022-0.058,0.686-0.195,0.977c-0.435,0.927-0.944,3.048-2.532,2.532
	c0.029-0.584,0.909-1.104,1.365-1.754C26.367,33.004,26.353,32.355,27.275,31.897"/>
<path fill="#EB2626" d="M27.275,31.897c0.812,0.022-0.058,0.686-0.195,0.977c-0.435,0.927-0.944,3.048-2.532,2.532
	c0.029-0.584,0.909-1.104,1.365-1.754C26.367,33.004,26.353,32.355,27.275,31.897"/>
<path fill="none" stroke="#EB2626" stroke-width="0.195" stroke-miterlimit="10" d="M27.275,31.897
	c0.812,0.022-0.058,0.686-0.195,0.977c-0.435,0.927-0.944,3.048-2.532,2.532c0.029-0.584,0.909-1.104,1.365-1.754
	C26.367,33.004,26.353,32.355,27.275,31.897z"/>
<path fill="#EB2626" d="M11.095,32.288c0.577,0.3,2.265,0.18,3.509,0.193c0.964,0.011,1.899-0.526,2.144,0.392
	c-1.576,0.667-3.655,0.501-5.458,0.194C11.313,32.719,11.05,32.656,11.095,32.288"/>
<path fill="#EB2626" d="M11.095,32.288c0.577,0.3,2.265,0.18,3.509,0.193c0.964,0.011,1.899-0.526,2.144,0.392
	c-1.576,0.667-3.655,0.501-5.458,0.194C11.313,32.719,11.05,32.656,11.095,32.288"/>
<path fill="none" stroke="#EB2626" stroke-width="0.195" stroke-miterlimit="10" d="M11.095,32.288
	c0.577,0.3,2.265,0.18,3.509,0.193c0.964,0.011,1.899-0.526,2.144,0.392c-1.576,0.667-3.655,0.501-5.458,0.194
	C11.313,32.719,11.05,32.656,11.095,32.288z"/>
<path fill="#EB2626" d="M23.572,33.457c-0.383,1.048-1.515,1.041-2.729,1.56c-1.215,0.519-2.184,0.998-3.315,0.39
	c0.913-0.538,2.086-0.77,3.12-1.168C21.605,33.866,22.584,33.128,23.572,33.457"/>
<path fill="#EB2626" d="M23.572,33.457c-0.383,1.048-1.515,1.041-2.729,1.56c-1.215,0.519-2.184,0.998-3.315,0.39
	c0.913-0.538,2.086-0.77,3.12-1.168C21.605,33.866,22.584,33.128,23.572,33.457"/>
<path fill="none" stroke="#EB2626" stroke-width="0.195" stroke-miterlimit="10" d="M23.572,33.457
	c-0.383,1.048-1.515,1.041-2.729,1.56c-1.215,0.519-2.184,0.998-3.315,0.39c0.913-0.538,2.086-0.77,3.12-1.168
	C21.605,33.866,22.584,33.128,23.572,33.457z"/>
<path fill="#EB2626" d="M21.037,37.552c-0.921,0.761-2.244,0.073-3.119-0.392c-0.292-0.155-0.498-0.394-0.779-0.583
	c-1.108-0.747-2.452-1.621-2.924-2.729c0.308-0.017,0.637-0.171,0.993,0.021c0.36,0.191,0.316,0.3,0.745,0.621
	C16.381,34.811,18.894,36.837,21.037,37.552"/>
<path fill="#EB2626" d="M21.037,37.552c-0.921,0.761-2.244,0.073-3.119-0.392c-0.292-0.155-0.498-0.394-0.779-0.583
	c-1.108-0.747-2.452-1.621-2.924-2.729c0.308-0.017,0.637-0.171,0.993,0.021c0.36,0.191,0.316,0.3,0.745,0.621
	C16.381,34.811,18.894,36.837,21.037,37.552"/>
<path fill="none" stroke="#EB2626" stroke-width="0.195" stroke-miterlimit="10" d="M21.037,37.552
	c-0.921,0.761-2.244,0.073-3.119-0.392c-0.292-0.155-0.498-0.394-0.779-0.583c-1.108-0.747-2.452-1.621-2.924-2.729
	c0.308-0.017,0.637-0.171,0.993,0.021c0.36,0.191,0.316,0.3,0.745,0.621C16.381,34.811,18.894,36.837,21.037,37.552z"/>
<path fill="#EB2626" d="M30.588,33.652c0.501-0.009,0.239,0.146,0.198,0.389c-1.626,2.471-3.663,4.526-7.8,4.483
	c0.962-0.893,2.943-0.881,4.288-1.752c0.323-0.21,0.616-0.447,0.976-0.781C29.096,35.207,29.407,34.048,30.588,33.652"/>
<path fill="#EB2626" d="M30.588,33.652c0.501-0.009,0.239,0.146,0.198,0.389c-1.626,2.471-3.663,4.526-7.8,4.483
	c0.962-0.893,2.943-0.881,4.288-1.752c0.323-0.21,0.616-0.447,0.976-0.781C29.096,35.207,29.407,34.048,30.588,33.652"/>
<path fill="none" stroke="#EB2626" stroke-width="0.195" stroke-miterlimit="10" d="M30.588,33.652
	c0.501-0.009,0.239,0.146,0.198,0.389c-1.626,2.471-3.663,4.526-7.8,4.483c0.962-0.893,2.943-0.881,4.288-1.752
	c0.323-0.21,0.616-0.447,0.976-0.781C29.096,35.207,29.407,34.048,30.588,33.652z"/>
<path fill="#EB2626" d="M27.862,35.798c-1.722,1.577-5.634,0.544-7.409-0.195c0.997-0.831,2.335,0.238,3.704,0.389
	C25.457,36.135,26.734,35.815,27.862,35.798"/>
<path fill="#EB2626" d="M27.862,35.798c-1.722,1.577-5.634,0.544-7.409-0.195c0.997-0.831,2.335,0.238,3.704,0.389
	C25.457,36.135,26.734,35.815,27.862,35.798"/>
<path fill="none" stroke="#EB2626" stroke-width="0.195" stroke-miterlimit="10" d="M27.862,35.798
	c-1.722,1.577-5.634,0.544-7.409-0.195c0.997-0.831,2.335,0.238,3.704,0.389C25.457,36.135,26.734,35.815,27.862,35.798z"/>
<path fill="#EB2626" d="M20.257,39.307c-0.391,0.099-2.518,0.194-3.314,0c-0.795-0.195-1.667-0.561-2.535-0.975
	c-0.797-0.382-1.907-0.853-1.755-1.366c1.649,0.013,2.729,1.144,4.29,1.559c1.017,0.272,2.509,0.263,3.509,0
	c1.218-0.315,2.173-1.713,3.509-1.363C22.946,38.099,20.648,39.209,20.257,39.307"/>
<path fill="#EB2626" d="M20.257,39.307c-0.391,0.099-2.518,0.194-3.314,0c-0.795-0.195-1.667-0.561-2.535-0.975
	c-0.797-0.382-1.907-0.853-1.755-1.366c1.649,0.013,2.729,1.144,4.29,1.559c1.017,0.272,2.509,0.263,3.509,0
	c1.218-0.315,2.173-1.713,3.509-1.363C22.946,38.099,20.648,39.209,20.257,39.307"/>
<path fill="none" stroke="#EB2626" stroke-width="0.195" stroke-miterlimit="10" d="M20.257,39.307
	c-0.391,0.099-2.518,0.194-3.314,0c-0.795-0.195-1.667-0.561-2.535-0.975c-0.797-0.382-1.907-0.853-1.755-1.366
	c1.649,0.013,2.729,1.144,4.29,1.559c1.017,0.272,2.509,0.263,3.509,0c1.218-0.315,2.173-1.713,3.509-1.363
	C22.946,38.099,20.648,39.209,20.257,39.307z"/>
<path fill="#EB2626" d="M54.103,23.857c-0.76,0.461-1.626,0.7-2.633,0.7c-2.671,0-4.438-1.852-4.438-4.166
	c0-2.644,1.886-4.59,4.663-4.59c0.961,0,1.875,0.247,2.527,0.663l-0.357,1.958c-0.498-0.425-1.209-0.725-2.017-0.725
	c-1.446,0-2.432,1.01-2.432,2.458c0,1.589,1.044,2.479,2.41,2.479c1.019,0,1.744-0.415,2.36-0.938L54.103,23.857z"/>
<path fill="#EB2626" d="M58.117,19.931c-0.582,0-0.948,0.475-0.948,1.471c0,1.163,0.379,1.578,0.901,1.578
	c0.592,0,0.961-0.451,0.961-1.472C59.031,20.309,58.627,19.931,58.117,19.931 M58.011,24.558c-1.839,0-3.026-1.294-3.026-2.955
	c0-1.887,1.27-3.238,3.18-3.238c1.851,0,3.049,1.294,3.049,2.953C61.214,23.204,59.933,24.558,58.011,24.558"/>
<path fill="#EB2626" d="M65.881,24.344c0.058-0.511,0.07-1.33,0.07-2.017v-1.246c0-0.689-0.131-1.008-0.617-1.008
	c-0.558,0-0.96,0.5-0.96,0.996v2.052c0,0.416,0.011,0.915,0.044,1.223h-2.37c0.049-0.511,0.071-1.33,0.071-2.017v-1.78
	c0-0.687-0.022-1.4-0.071-1.909c0.414,0,1.875-0.18,2.231-0.215l0.083,1.283c0.474-0.844,1.34-1.342,2.147-1.342
	c1.151,0,1.696,0.771,1.696,2.053v2.704c0,0.416,0.024,0.915,0.048,1.223H65.881z"/>
<path fill="#EB2626" d="M73.798,18.721l-0.403,1.471c-0.429-0.213-0.938-0.38-1.424-0.38c-0.451,0-0.653,0.154-0.653,0.391
	c0,0.63,2.788,0.511,2.788,2.362c0,1.315-1.056,1.993-2.634,1.993c-0.688,0-1.767-0.203-2.289-0.464l0.058-1.624
	c0.547,0.296,1.412,0.64,2.183,0.64c0.439,0,0.643-0.166,0.643-0.379c0-0.689-2.779-0.511-2.779-2.433
	c0-1.092,0.903-1.934,2.481-1.934C72.553,18.364,73.334,18.53,73.798,18.721"/>
<path fill="#EB2626" d="M76.126,17.64c-0.676,0-1.222-0.427-1.222-1.079c0-0.688,0.57-1.139,1.258-1.139
	c0.676,0,1.234,0.439,1.234,1.078C77.396,17.201,76.827,17.64,76.126,17.64 M74.893,24.344c0.059-0.511,0.083-1.246,0.083-1.946
	v-1.84c0-0.688-0.024-1.505-0.083-2.016c0.427,0,2.027-0.084,2.383-0.119c-0.033,0.309-0.047,0.855-0.047,1.271v3.5
	c0,0.413,0.014,0.842,0.047,1.149H74.893z"/>
<path fill="#EB2626" d="M78.371,24.344c0.06-0.511,0.083-1.306,0.083-2.006v-4.532c0-0.688-0.023-1.388-0.083-1.897
	c0.427,0,2.027-0.167,2.383-0.237c-0.033,0.309-0.045,1.672-0.045,1.768v5.695c-0.012,0.415,0.012,0.902,0.045,1.21H78.371z"/>
<path fill="#EB2626" d="M83.082,17.64c-0.676,0-1.221-0.427-1.221-1.079c0-0.688,0.568-1.139,1.258-1.139
	c0.676,0,1.233,0.439,1.233,1.078C84.352,17.201,83.783,17.64,83.082,17.64 M81.848,24.344c0.062-0.511,0.083-1.246,0.083-1.946
	v-1.84c0-0.688-0.021-1.505-0.083-2.016c0.428,0,2.03-0.084,2.386-0.119c-0.035,0.309-0.048,0.855-0.048,1.271v3.5
	c0,0.413,0.013,0.842,0.048,1.149H81.848z"/>
<path fill="#EB2626" d="M89.087,20.843c-0.048-0.637-0.307-1.02-0.844-1.02c-0.567,0-0.948,0.451-0.996,1.067L89.087,20.843z
	 M90.594,21.732l-3.355,0.073c0.047,0.723,0.508,1.126,1.376,1.126c0.937,0,1.625-0.284,2.229-0.604l-0.035,1.53
	c-0.724,0.428-1.52,0.675-2.456,0.675c-2.172,0-3.263-1.327-3.263-2.988c0-1.887,1.34-3.181,3.226-3.181
	c1.875,0,2.717,1.282,2.717,2.872L90.594,21.732z"/>
<path fill="#EB2626" d="M95.676,24.344c0.061-0.511,0.071-1.33,0.071-2.017v-1.246c0-0.689-0.133-1.008-0.617-1.008
	c-0.556,0-0.961,0.5-0.961,0.996v2.052c0,0.416,0.011,0.915,0.048,1.223h-2.373c0.049-0.511,0.07-1.33,0.07-2.017v-1.78
	c0-0.687-0.021-1.4-0.07-1.909c0.416,0,1.875-0.18,2.23-0.215l0.084,1.283c0.473-0.844,1.34-1.342,2.146-1.342
	c1.15,0,1.696,0.771,1.696,2.053v2.704c0,0.416,0.024,0.915,0.047,1.223H95.676z"/>
<path fill="#EB2626" d="M103.689,20.487c-0.345-0.308-0.771-0.451-1.188-0.451c-0.842,0-1.376,0.595-1.376,1.377
	c0,0.949,0.711,1.436,1.469,1.436c0.513,0,0.892-0.166,1.354-0.594l-0.049,1.84c-0.533,0.297-1.065,0.463-1.791,0.463
	c-2.026,0-3.215-1.354-3.215-2.931c0-1.84,1.33-3.262,3.336-3.262c0.627,0,1.303,0.166,1.801,0.496L103.689,20.487z"/>
<path fill="#EB2626" d="M108.604,20.843c-0.049-0.637-0.309-1.02-0.843-1.02c-0.569,0-0.95,0.451-0.997,1.067L108.604,20.843z
	 M110.109,21.732l-3.355,0.073c0.044,0.723,0.509,1.126,1.376,1.126c0.936,0,1.624-0.284,2.229-0.604l-0.036,1.53
	c-0.724,0.428-1.519,0.675-2.456,0.675c-2.172,0-3.263-1.327-3.263-2.988c0-1.887,1.341-3.181,3.228-3.181
	c1.875,0,2.718,1.282,2.718,2.872L110.109,21.732z"/>
<path fill="#EB2626" d="M118.074,24.532c-2.765,0-4.461-1.779-4.461-4.187c0-2.623,1.971-4.543,4.688-4.543
	c1.329,0,2.361,0.449,2.919,0.841l-0.569,1.852c-0.464-0.356-1.329-0.748-2.29-0.748c-1.532,0-2.421,1.031-2.421,2.444
	c0,1.624,1.079,2.467,2.313,2.467c0.402,0,0.749-0.046,1.068-0.153v-0.712c0-0.131,0-0.476-0.023-0.653
	c-0.403-0.012-0.249-0.012-0.664-0.012c-0.356,0-0.664,0.012-1.046,0.036c0.038-0.664,0.06-1.186,0.038-1.685
	c0.721,0.035,1.077,0.048,1.611,0.048c0.975,0,1.364-0.013,2.207-0.048c-0.059,0.474-0.083,2.135-0.083,2.918v1.306
	C120.626,24.106,119.641,24.532,118.074,24.532"/>
<path fill="#EB2626" d="M126.86,20.428c-0.998-0.106-1.935,0.13-1.935,1.234v1.459c0,0.416,0.012,0.915,0.047,1.223h-2.374
	c0.062-0.511,0.074-1.33,0.074-2.017v-1.838c0-0.69-0.037-1.33-0.083-1.841c0.403,0,1.873-0.19,2.229-0.237l0.097,1.472
	c0.33-0.854,1.03-1.437,2.087-1.52L126.86,20.428z"/>
<path fill="#EB2626" d="M130.397,19.931c-0.581,0-0.949,0.475-0.949,1.471c0,1.163,0.381,1.578,0.903,1.578
	c0.592,0,0.96-0.451,0.96-1.472C131.312,20.309,130.908,19.931,130.397,19.931 M130.292,24.558c-1.84,0-3.025-1.294-3.025-2.955
	c0-1.887,1.269-3.238,3.18-3.238c1.851,0,3.049,1.294,3.049,2.953C133.495,23.204,132.213,24.558,130.292,24.558"/>
<path fill="#EB2626" d="M138.458,24.344l-0.226-1.08c-0.392,0.735-1.103,1.294-2.029,1.294c-1.232,0-1.828-0.807-1.828-2.184v-1.862
	c0-0.665-0.021-1.376-0.059-1.922c0.831,0,1.685-0.036,2.374-0.096c-0.047,0.31-0.06,0.938-0.06,1.353v1.946
	c0,0.736,0.166,1.056,0.711,1.056c0.451,0,0.867-0.402,0.867-0.96v-1.377c0-0.665-0.013-1.376-0.06-1.922
	c0.831,0,1.697-0.036,2.384-0.096c-0.046,0.31-0.072,0.938-0.072,1.353v2.527c0,0.688,0.026,1.448,0.072,1.97H138.458z"/>
<path fill="#EB2626" d="M144.738,19.907c-0.344,0-0.582,0.166-0.771,0.401v2.434c0.201,0.178,0.403,0.271,0.782,0.271
	c0.642,0,1.01-0.723,1.01-1.577C145.759,20.392,145.33,19.907,144.738,19.907 M145.212,24.558c-0.557,0-0.9-0.107-1.245-0.309v1.411
	c0,0.404,0.012,0.807,0.048,1.103c-0.333,0.036-2.102,0.18-2.373,0.238c0.048-0.498,0.06-1.269,0.06-1.945v-4.438
	c0-0.688-0.025-1.447-0.083-1.98c0.426,0,1.802-0.155,2.159-0.202l0.094,0.747c0.44-0.475,0.972-0.818,1.722-0.818
	c1.529,0,2.395,1.399,2.395,2.87C147.987,23.181,146.732,24.558,145.212,24.558"/>
</svg>
